<svg xmlns="http://www.w3.org/2000/svg" width="183" height="102" viewBox="0 0 183 102">
    <g fill="none" fill-rule="evenodd">
        <g>
            <g>
                <path fill="#FFF" d="M50.545 15l-9.011 39.305 3.846 2.789 2.062 1.483 3.279 2.333 5.4-23.82h-6.253l.352-1.409h12.645l-1.896 7.458c2.598-4.43 6.392-8.3 11.38-8.3 2.881 0 6.042 1.404 6.042 5.343 0 .9-.16 1.598-.357 2.308l-.206.72c2.67-4.786 6.814-8.371 11.381-8.371 3.02 0 6.04 1.616 6.04 5.486 0 1.146-.206 2.343-.441 3.416l-2.506 10.865-.683 3.202-.264 1.3-.154.807-.123.708c-.07.43-.112.765-.112.948 0 1.087.65 1.29 1.043 1.329l.22.009.147-.008.18-.026.211-.049.24-.077c1.103-.4 2.994-1.721 5.14-5.715l.248-.473 1.194.79c-2.956 5.696-6.656 7.538-9.161 7.932l-.455.058-.425.027-.2.003-.328-.01-.36-.034c-1.625-.203-3.947-1.197-3.947-4.671 0-.797.125-1.563.291-2.36l.27-1.227 3.234-13.858.319-1.455c.187-.907.313-1.69.313-2.345 0-1.827-1.547-2.32-2.46-2.32-.703 0-1.758.28-3.233 1.405-3.753 2.984-5.684 7.837-6.885 11.826l-.31 1.065-.408 1.49-.123.462-2.67 11.256H66.73l4.707-19.98.423-1.918.178-.873c.19-.977.313-1.807.313-2.413 0-1.76-1.336-2.392-2.459-2.392-.705 0-1.968.28-3.725 1.69-3.77 3.018-5.64 7.941-6.687 11.722l-.256.959-.322 1.314-2.747 11.818c19.275 11.94 38.94 14.928 58.123 14.928 11.755 0 22.701-1.997 32.21-4.752l1.823-.543 1.786-.559c2.06-.662 4.045-1.354 5.944-2.063l1.607-.61 1.564-.618 1.521-.62 1.477-.624c.242-.103.482-.207.721-.311l1.408-.622 1.36-.62 1.314-.614.638-.304 1.238-.604 1.189-.593 1.137-.58 1.606-.846 1.484-.806 1.36-.762.834-.48 1.495-.882 1.254-.767 1.004-.635 1.023-.67.427-.292-2.516 10.97c-19.496 15.183-77.806 30.19-122.298-.528-3.745-2.585-7.646-5.62-11.555-8.721l-4.392-3.498-1.781 7.77h-7.9l3.207-12.832c-3.144-2.397-6.196-4.588-9.071-6.362l-.952-.575L8.026 63.191h7.024l-.578 1.475H0l.578-1.475h5.128l17.305-19.108c-2.866-1.577-5.521-2.633-7.865-2.933-2.177-.28-4.305.146-4.837.682-.218.25-.235.447-.1.88l.068.202c.6 1.63.467 2.83-.482 3.924-1.097 1.264-3.047 1.376-4.427.173-1.379-1.198-1.145-3.071-.116-4.806 1.11-1.877 4.156-4.222 11.123-2.872 2.385.462 4.75 1.39 7.343 2.787l.713.393L49.349 15h1.196zM177.29 73.495c.37 0 .713.093 1.03.276.32.183.569.436.755.753.183.321.275.663.275 1.03 0 .369-.092.71-.275 1.031-.186.318-.435.569-.755.754-.317.183-.66.273-1.03.273-.365 0-.708-.09-1.025-.273-.317-.185-.57-.436-.75-.754-.187-.32-.28-.662-.28-1.03s.093-.71.28-1.03c.18-.318.433-.571.75-.754.317-.183.66-.276 1.025-.276zm0 .398c-.458 0-.846.162-1.172.486-.322.325-.487.717-.487 1.176 0 .458.165.849.487 1.175.326.324.714.487 1.172.487.46 0 .85-.163 1.174-.487.326-.326.486-.717.486-1.175 0-.459-.16-.851-.486-1.176-.324-.324-.714-.486-1.174-.486zm.053.56c.279 0 .482.056.604.17.126.111.188.261.188.45 0 .148-.048.277-.142.383-.095.11-.244.187-.451.237.085.03.146.067.186.102.037.033.076.078.115.133l.092.146.326.582h-.646l-.19-.363-.14-.25c-.04-.065-.071-.111-.095-.139-.073-.083-.145-.122-.216-.122l-.068.007v.867h-.547v-2.202h.984zm-.176.384h-.261v.55h.237c.158 0 .27-.027.334-.077.065-.05.098-.117.098-.197s-.032-.147-.093-.199c-.041-.035-.102-.057-.181-.069l-.134-.008zm-60.06-39.998c2.107 0 3.866.773 5.059 1.828.917.806 1.368 1.564 1.656 2.199l.17.404.843-3.589h6.392l-4.696 19.926-.264 1.207-.151.742-.247 1.315-.176 1.056-.14 1.01-.016.212c0 .916.282 1.76 1.476 1.76.7 0 1.684-.495 2.807-1.618 1.107-1.159 1.788-2.117 2.716-3.758l.534-.968 1.003.788-.367.67c-.194.34-.402.69-.623 1.041l-.46.706c-1.915 2.824-4.67 5.6-7.858 5.6-2.53 0-4.637-1.759-4.917-5.556l-.423.652-.286.41c-1.295 1.798-3.92 4.634-8.285 4.634-4.566 0-9.974-3.797-9.974-11.536 0-10.765 9.2-19.135 16.227-19.135zm39.204 0c2.109 0 3.583 1.336 3.583 3.024 0 1.338-1.053 3.093-3.02 3.093-1.504 0-2.352-.903-2.793-1.549l-.175-.275-.124-.214-.192-.299c-.18-.277-.353-.475-.72-.475-.608 0-1.374.782-2.045 1.615l-.39.5-.516.697-.587.83-.362.54c-.059.089-.116.178-.173.267l-.332.537-.314.543c-.102.183-.202.368-.3.557l-.288.578c-.141.296-.279.602-.414.923l-.268.661-.265.707-.264.76-.265.82-.134.434-.272.922-.279 1-.438 1.658-.47 1.872-.334 1.378-2.04 8.724h-6.322l6.393-27.576h-6.393l.352-1.41h12.435l-1.757 7.81.617-1.138.33-.578.377-.627c1.662-2.695 4.493-6.309 8.159-6.309zm23.107 0c2.107 0 3.582 1.337 3.582 3.023 0 1.338-1.053 3.096-3.021 3.096-1.504 0-2.35-.905-2.79-1.55l-.176-.276-.123-.213-.193-.299c-.182-.277-.353-.475-.721-.475-.67 0-1.53.945-2.245 1.865l-.547.728-.559.777-.373.543-.178.268-.34.535-.323.539-.307.55-.293.566-.283.591-.138.308-.27.641-.267.683-.264.733-.264.789-.266.852-.272.922-.28 1-.438 1.658-.47 1.872-.334 1.379-2.039 8.722h-6.324l6.394-27.576h-4.519l.352-1.41h10.563l-1.757 7.811.47-.872.306-.548.353-.604c1.63-2.72 4.54-6.628 8.354-6.628zm-61.257 1.547c-2.107 0-4.848 1.686-6.884 5.767-.635 1.271-1.4 3.346-2.095 5.64l-.37 1.27c-.904 3.21-1.61 6.63-1.61 8.778 0 3.308 1.334 6.192 4.779 6.192 3.669 0 5.934-3.101 7.364-6.447l.305-.746.278-.747.13-.372.241-.736.32-1.071.274-1.01.302-1.213.126-.534.232-.914.26-1.07.268-1.173.261-1.221c.335-1.636.598-3.254.598-4.274 0-3.798-2.18-6.12-4.78-6.12zm-77.428-9.64l-14.888 16.59c1.122.676 2.295 1.431 3.535 2.266l1.52 1.04c.26.179.522.361.788.547l1.63 1.153 1.712 1.228 5.703-22.824z" transform="translate(-20 -107) translate(20 107)"/>
                <path d="M113 35H125V65H113zM113 87H125V102H113zM113 0H125V15H113z" opacity=".8" transform="translate(-20 -107) translate(20 107)"/>
            </g>
        </g>
    </g>
</svg>
