<?xml version="1.0" encoding="UTF-8" standalone="no" ?>
<!DOCTYPE svg PUBLIC "-//W3C//DTD SVG 1.1//EN" "http://www.w3.org/Graphics/SVG/1.1/DTD/svg11.dtd">
<svg xmlns="http://www.w3.org/2000/svg" xmlns:xlink="http://www.w3.org/1999/xlink" version="1.1" width="200" height="200" viewBox="0 0 1280 1024" xml:space="preserve">
<desc>Created with Fabric.js 5.3.0</desc>
<defs>
</defs>
<g transform="matrix(1 0 0 1 640 512)" id="background-logo"  >
<rect style="stroke: none; stroke-width: 0; stroke-dasharray: none; stroke-linecap: butt; stroke-dashoffset: 0; stroke-linejoin: miter; stroke-miterlimit: 4; fill: rgb(255,255,255); fill-opacity: 0; fill-rule: nonzero; opacity: 1;"  paint-order="stroke"  x="-640" y="-512" rx="0" ry="0" width="1280" height="1024" />
</g>
<g transform="matrix(1.9211538461538462 0 0 1.9211538461538462 640 406.38956790849807)" id="logo-logo"  >
<g style=""  paint-order="stroke"   >
		<g transform="matrix(0.4286963134079072 0 0 0.4286963134079072 -6.43044586468e-8 1.528237988547744)"  >
<path style="stroke: none; stroke-width: 1; stroke-dasharray: none; stroke-linecap: butt; stroke-dashoffset: 0; stroke-linejoin: miter; stroke-miterlimit: 4; fill: rgb(177,199,229); fill-rule: nonzero; opacity: 1;"  paint-order="stroke"  transform=" translate(-297.6499937, -301.2148132)" d="M 297.6502075 76.7564697 L 122.420105 242.5414429 L 122.420105 485.43383789999996 L 168.73712160000002 485.43383789999996 L 165.97845460000002 410.66564939999995 L 144.40344240000002 326.95471189999995 L 148.2869263 283.80474849999996 L 172.8824463 241.51782219999996 L 194.5165405 244.61273189999994 L 175.47143549999998 281.2157591999999 L 171.58789059999998 342.0571898999999 L 184.53289789999997 377.4401854999999 L 176.36383049999998 522.3341063999999 L 182.9839477 521.5193480999999 L 186.95147699999998 485.4338377999999 L 229.54351799999998 485.4338377999999 L 235.79663079999997 511.6292723999999 L 246.67565909999996 511.03588859999985 L 242.35327139999995 485.4338377999999 L 283.27587879999993 485.4338377999999 L 286.43359359999994 485.4338377999999 L 286.43359359999994 505.4974974999999 L 297.51037579999996 525.6731566999999 L 319.26843239999994 525.2775267999999 L 331.92767309999994 507.27770989999993 L 331.13336159999994 485.43383779999994 L 334.10382059999995 485.43383779999994 L 377.97314429999994 485.43383779999994 L 379.04522679999997 485.43383779999994 L 379.04522679999997 442.45916739999996 L 380.7221067 260.87622059999995 L 406.1215818 256.36935409999995 L 404.9032285 431.6931456 L 387.4296872 439.58453349999996 L 387.4296872 519.1168821 L 381.3778073 513.0650633 L 381.3778073 515.9808958 L 388.103027 523.2994993 L 428.4542843 523.2994993 L 434.38830529999996 515.5853268999999 L 434.97949179999995 485.43383759999995 L 437.43102989999994 485.43383759999995 L 472.87988239999993 485.43383759999995 L 472.87988239999993 242.54144259999995 C 458.7803345 229.2019653 316.8285522 94.9013062 297.6502075 76.7564697 z M 295.1798706 504.8050232 L 274.57806400000004 464.0805969 L 268.61016850000004 272.8539428 L 228.36486820000005 170.80340570000004 L 256.1533203 132.95361320000004 L 282.02526850000004 133.43273920000004 L 258.06976310000005 176.07360830000005 L 288.59481800000003 228.75605760000005 L 296.76626580000004 256.61328110000005 L 298.79418940000005 268.06286610000006 L 295.1798706 504.8050232 z" stroke-linecap="round" />
</g>
		<g transform="matrix(0.4286963134079072 0 0 0.4286963134079072 6.225901896899359 86.60471482667458)"  >
<path style="stroke: none; stroke-width: 1; stroke-dasharray: none; stroke-linecap: butt; stroke-dashoffset: 0; stroke-linejoin: miter; stroke-miterlimit: 4; fill: rgb(43,51,97); fill-rule: nonzero; opacity: 1;"  paint-order="stroke"  transform=" translate(-312.1728663408006, -499.6687634143469)" d="M 309.1982422 486.24646 C 306.4095764 486.1468506 304.73648069999996 486.8377381 302.23925779999996 487.6614991 L 304.60644529999996 487.8890382 C 318.24621579999996 489.19839490000004 319.67919919999997 508.5523988 306.49316409999994 511.9613038 L 304.16601569999995 512.5628663 C 306.26187139999996 512.89563 312.31954959999996 514.5789796 317.76660159999994 509.5550538 C 326.5957642 501.4121094 321.0596313 486.7347412 309.1982422 486.24646 z" stroke-linecap="round" />
</g>
		<g transform="matrix(0.4286963134079072 0 0 0.4286963134079072 0 0)"  >
<path style="stroke: none; stroke-width: 1; stroke-dasharray: none; stroke-linecap: butt; stroke-dashoffset: 0; stroke-linejoin: miter; stroke-miterlimit: 4; fill: rgb(43,51,97); fill-rule: nonzero; opacity: 1;"  paint-order="stroke"  transform=" translate(-297.64999385, -297.64996335)" d="M 436.7810059 198.9110107 L 436.7810059 102.5847778 L 385.234314 102.5847778 L 385.234314 150.1428222 L 297.6500244 67.27960200000001 L 116.4044189 238.7554932 L 116.4044189 490.2532959 L 167.3788452 490.2532959 L 167.013855 526.4129639 L 185.6257324 524.6689453 L 189.19091790000002 490.2532959 L 228.7874145 490.2532959 L 234.69238280000002 515.5018311 L 249.6352539 514.201355 L 246.5476074 490.2532959 L 283.1999512 490.2532959 L 282.99719239999996 506.347168 L 282.98693849999995 507.1468506 L 294.57580569999993 528.0203247 L 321.53051759999994 527.8463135 L 334.97430419999995 507.87969969999995 L 334.3255005 490.25329589999996 L 377.97332759999995 490.25329589999996 L 377.97332759999995 517.5637816999999 L 386.16711419999996 526.1148070999999 L 429.2370605 526.1148070999999 L 437.4308471 517.5637816999999 L 437.4308471 490.25329589999996 L 478.8955688 490.25329589999996 L 478.8955688 238.7554932 L 436.7810059 198.9110107 z M 202.4134521 291.732666 C 203.3571167 291.0202637 204.0293579 289.9649658 204.2310791 288.6956177 L 210.98199459999998 246.26824950000002 L 215.23437499999997 247.56213380000003 C 217.11230469999998 255.78051760000002 225.27557369999997 291.49981690000004 228.03234859999998 303.5524902 L 228.01910399999997 303.5459594 L 202.53033449999998 355.4697875 L 207.65734869999997 300.46844469999996 L 201.27343759999997 298.2616576 L 202.4134521 291.732666 z M 194.5165405 244.6127319 L 199.64953609999998 244.9526977 L 190.30468749999997 261.13037099999997 L 193.55053709999999 282.1437377 L 194.89135739999998 288.87847889999995 C 195.09979249999998 289.92303459999994 195.6300049 290.80206289999995 196.35449219999998 291.45983879999994 L 195.5144043 296.27093499999995 L 166.9067383 286.38183589999994 L 194.5165405 244.6127319 z M 188.625 351.7387085 C 190.8239136 351.7387085 192.6847534 350.2943726 193.3127441 348.3029175 L 197.1569824 348.3029175 L 190.9460449 414.92773439999996 L 183.4936523 486.8695679 L 183.4547119 487.2453614 L 183.4157715 487.6215211 L 180.1508179 519.1395875 L 173.09631349999998 519.8012086 L 173.42126469999997 487.6215211 L 173.42498779999997 487.2453614 L 173.42883299999997 486.8695679 L 173.46307369999997 483.4741211 L 175.86944579999997 378.4038086 L 175.87896729999997 377.97717289999997 L 163.44927979999997 331.06353759999996 L 164.55670169999996 291.93377689999994 L 178.61834719999996 296.79479979999996 L 177.82769779999995 303.11993409999997 C 175.40643319999995 303.5942383 173.57897949999995 305.72583009999994 173.57897949999995 308.28594969999995 C 173.57897949999995 311.19445799999994 175.93676759999994 313.55224609999993 178.84527589999993 313.55224609999993 C 181.75378419999993 313.55224609999993 184.11157229999992 311.19445799999994 184.11157229999992 308.28594969999995 C 184.11157229999992 306.07733149999996 182.7506103999999 304.18920899999995 180.8226928999999 303.40698239999995 L 181.5236816999999 297.79913329999994 L 201.2299804999999 304.6114501999999 L 199.6058959999999 322.03295899999995 L 195.37664799999988 322.03295899999995 C 194.54187019999986 319.82049559999996 192.41088869999987 318.24389649999995 189.90625009999988 318.24389649999995 C 186.6745605999999 318.24389649999995 184.05480969999988 320.86364749999996 184.05480969999988 324.09533689999995 C 184.05480969999988 327.3269652999999 186.6745606999999 329.94677729999995 189.90625009999988 329.94677729999995 C 192.81524669999988 329.94677729999995 195.22161879999987 327.82171629999993 195.67449959999988 325.04071039999997 L 199.32550059999988 325.04071039999997 L 197.4373169999999 345.29522699999995 L 193.2949219999999 345.29522699999995 C 192.6518555999999 343.32946769999995 190.8056031999999 341.90826409999994 188.6250000999999 341.90826409999994 C 185.9104614999999 341.90826409999994 183.70977789999992 344.1088866999999 183.70977789999992 346.82348629999996 C 183.70977789999992 349.5380859 185.9104614 351.7387085 188.625 351.7387085 z M 205.5634766 390.97229 L 198.1292725 402.682434 L 201.02978520000002 371.5664672 L 205.5691529 390.975891 L 205.5634766 390.97229 z M 239.3627319 509.0574951 L 234.3494262 487.621521 L 234.26147450000002 487.24536129999996 L 234.1735839 486.86956779999997 L 205.310913 363.45690909999996 L 208.755371 356.44000239999997 L 213.2026366 359.1850586 C 212.75628650000002 360.0802002 212.4989012 361.0861206 212.4989012 362.15429689999996 C 212.4989012 365.83837889999995 215.4854735 368.82489019999997 219.1695555 368.82489019999997 C 222.8536375 368.82489019999997 225.8402098 365.838379 225.8402098 362.15429689999996 C 225.8402098 358.47015379999993 222.8536375 355.48364259999994 219.1695555 355.48364259999994 C 217.6538695 355.48364259999994 216.2608641 355.9949950999999 215.1407469 356.84661869999996 L 210.087097 353.72717289999997 L 218.9965819 335.5775147 L 238.2681883 348.466919 C 233.0364378 364.8734131 227.0588987 382.6902466 226.9576414 382.9917603 L 226.7373655 383.64752200000004 L 240.0457761 486.86956790000005 L 240.09423800000002 487.24536140000004 L 240.1427609 487.62152110000005 L 242.86718720000002 508.75274670000005 L 239.3627319 509.0574951 z M 246.201355 321.1091919 L 245.43035890000002 324.6193848 C 244.49285890000002 328.3961792 242.5018311 335.0220948 240.15814210000002 342.4937134 L 221.67114260000002 330.1290894 L 229.10998540000003 314.9752808 L 229.11358650000003 314.9769898 C 230.62146 311.8201905 233.85424810000004 309.7810059 237.34960940000002 309.7810059 C 237.93713380000003 309.7810059 238.51019290000002 309.841919 239.06707770000003 309.94854740000005 L 237.03179940000004 315.21929940000007 C 234.36053480000004 315.2693482000001 232.20953380000003 317.44653330000006 232.20953380000003 320.1298219000001 C 232.20953380000003 322.84442150000007 234.41021740000002 325.0450441000001 237.12475600000002 325.0450441000001 C 239.83935560000003 325.0450441000001 242.0399782 322.8444215000001 242.0399782 320.1298219000001 C 242.0399782 318.4544069000001 241.2001955 316.9767457000001 239.9201662 316.0894166000001 L 241.8853151 311.0002442000001 C 244.6203005 312.5767213000001 246.46972670000002 315.52429210000014 246.46972670000002 318.9011231000001 C 246.4697266 319.6494141 246.3793945 320.3925171 246.201355 321.1091919 z M 298.5210571 132.5140991 L 306.12994380000004 144.2697143 L 310.46490470000003 164.16424560000002 L 308.32220450000005 181.06823730000002 L 296.31695550000006 175.85705570000002 L 286.7642822000001 164.22406010000003 L 298.5210571 132.5140991 z M 320.0183105 265.1033325 L 328.1815185 486.8695679 L 328.1953124 487.2453614 L 328.20916739999996 487.6215211 L 328.89099109999995 506.1437989 L 318.31469719999996 521.8514405 L 298.1035156 521.9813843 L 289.0223388 505.62390139999997 C 289.0223388 505.62390139999997 289.059082 502.71008299999994 289.0744018 501.49090579999995 L 289.13616939999997 496.58819579999994 C 289.16821289999996 494.04193119999996 291.59863279999996 301.1170043999999 292.09466549999996 261.7401732999999 L 292.09905999999995 261.4122923999999 L 288.93969719999996 246.1812132999999 L 284.64324939999995 233.95349109999992 L 259.68798819999995 193.1442869999999 L 299.0010986 208.3714598999999 L 289.1666259 232.2197874999999 C 288.8622436 232.9570311999999 288.8637084 233.78533929999992 289.1699218 234.5218504999999 C 289.4765014 235.2583616999999 290.0628051 235.84289539999992 290.800476 236.1468504999999 L 314.1827392 245.7894896999999 C 314.5505981 245.94110099999992 314.9398193 246.0167235999999 315.3297119 246.0167235999999 C 315.7225952 246.0167235999999 316.11541750000004 245.93963619999988 316.4848022 245.7858275999999 C 317.2213134 245.4796141999999 317.8065795 244.89324949999988 318.1105346 244.1556395999999 L 328.2025756 219.6821288999999 L 337.041748 223.1058349999999 L 320.0183105 265.1033325 z M 306.0533447 235.9302368 L 303.7734985 234.9901123 L 312.4344482 213.574646 L 314.73474120000003 214.4656372 L 306.0533447 235.9302368 z M 320.3002319 216.748291 L 322.5267334 217.66650389999998 L 313.6958618 239.08190919999998 L 311.6145019 238.22357179999997 L 320.3002319 216.748291 z M 298.2125854 232.6968994 L 295.8741455 231.7325439 L 304.6118774 210.54473869999998 L 306.82482910000004 211.40191639999998 L 298.2125854 232.6968994 z M 302.8002625 203.3922272 C 301.3485108 202.8299256 254.51873779999997 184.6911011 254.51873779999997 184.6911011 L 253.06567379999996 182.3149414 L 251.32098389999996 170.3537598 L 272.9941406 138.50848390000002 L 291.62323 133.8151856 L 279.9227295 165.37182620000002 L 292.5895996 180.79675300000002 L 347.6107788 204.68054210000003 C 348.0983276 204.8920289 348.2723999 205.29260260000004 348.333313 205.51251230000003 C 348.3935547 205.73248300000003 348.44860839999996 206.16534430000002 348.1372681 206.59674080000002 L 340.0429688 217.81756600000003 C 340.0429688 217.81756600000003 320.5863038 210.28131110000004 317.8009034 209.20243840000003 L 302.8002625 203.3922272 z M 414.9059448 405.7414551 L 416.5081787 405.7414551 L 417.13751219999995 405.7414551 L 417.13751219999995 418.4369507 L 398.26721189999995 418.4369507 L 398.26721189999995 405.7414551 L 400.49804689999996 405.7414551 L 414.9059448 405.7414551 z M 400.4980469 399.7260132 L 400.4980469 269.0480347 L 407.7589112 249.31787110000002 L 414.9059449 267.9711914 L 414.9059449 399.7260132 L 400.4980469 399.7260132 z M 391.3323364 486.8695679 L 391.3323364 487.2453614 L 391.3323364 487.6215211 L 391.3323364 520.0993653 L 388.734375 520.0993653 L 383.9885254 515.1464234 L 383.9885254 487.621521 L 383.9885254 487.24536129999996 L 383.9885254 486.86956779999997 L 383.9885254 456.56237789999994 L 387.8422852 452.54052729999995 L 391.3323365 452.54052729999995 L 391.3323365 486.8695679 z M 404.6946411 486.8695679 L 404.6946411 487.2453614 L 404.6946411 487.6215211 L 404.6946411 520.0993653 L 397.34783930000003 520.0993653 L 397.34783930000003 487.621521 L 397.34783930000003 487.24536129999996 L 397.34783930000003 486.86956779999997 L 397.34783930000003 452.54052729999995 L 404.6946411 452.54052729999995 L 404.6946411 486.8695679 z M 418.0568848 486.8695679 L 418.0568848 487.2453614 L 418.0568848 487.6215211 L 418.0568848 520.0993653 L 410.710083 520.0993653 L 410.710083 487.621521 L 410.710083 487.24536129999996 L 410.710083 486.86956779999997 L 410.710083 452.54052729999995 L 418.0568848 452.54052729999995 L 418.0568848 486.8695679 z M 431.4154663 486.8695679 L 431.4154663 487.2453614 L 431.4154663 487.6215211 L 431.4154663 515.1464234 L 426.6696167 520.0993653 L 424.0723267 520.0993653 L 424.0723267 487.621521 L 424.0723267 487.24536129999996 L 424.0723267 486.86956779999997 L 424.0723267 452.54052729999995 L 427.562378 452.54052729999995 L 431.4154664 456.56164549999994 L 431.4154664 486.8695679 z M 431.8619385 442.0377197 L 427.5622559 446.5250854 L 387.8424683 446.5250854 L 383.5427857 442.0377197 L 383.5427857 432.05694580000005 L 398.26721200000003 424.60589600000003 L 398.26721200000003 424.4524536 L 417.1375123 424.4524536 L 417.1375123 424.60589600000003 L 431.86193860000003 432.05694580000005 L 431.86193860000003 442.0377197 z" stroke-linecap="round" />
</g>
</g>
</g>
<g transform="matrix(1.9211538461538462 0 0 1.9211538461538462 638.1643375000001 681.865598732099)" id="text-logo"  >
<g style=""  paint-order="stroke"   >
		<g transform="matrix(1 0 0 1 5.684342e-14 0)" id="text-logo-path-0"  >
<filter id="SVGID_190402" y="-20%" height="140%" x="-20.636787472181158%" width="141.2735749443623%" >
	<feGaussianBlur in="SourceAlpha" stdDeviation="0"></feGaussianBlur>
	<feOffset dx="3.92" dy="0" result="oBlur" ></feOffset>
	<feFlood flood-color="rgb(177,199,229)" flood-opacity="1"/>
	<feComposite in2="oBlur" operator="in" />
	<feMerge>
		<feMergeNode></feMergeNode>
		<feMergeNode in="SourceGraphic"></feMergeNode>
	</feMerge>
</filter>
<path style="stroke: none; stroke-width: 0; stroke-dasharray: none; stroke-linecap: butt; stroke-dashoffset: 0; stroke-linejoin: miter; stroke-miterlimit: 4; fill: rgb(44,52,100); fill-rule: nonzero; opacity: 1;filter: url(#SVGID_190402);"  paint-order="stroke"  transform=" translate(-308.52500000000003, 17.64)" d="M 2.7 -27.93 L 2.7 0 L 14.16 0 C 23.86 0 28.96 -3.09 28.96 -9.7 C 28.96 -14.16 27.29 -17 22.88 -18.42 C 25.48 -19.65 27 -21.8 27 -25.68 C 27 -32.19 21.85 -34.3 13.18 -34.3 L 2.7 -34.3 L 0.73 -27.93 Z M 11.03 -6.37 L 11.03 -14.95 L 13.18 -14.95 C 17.64 -14.95 20.14 -13.47 20.14 -10.63 C 20.14 -7.45 18.67 -6.37 14.16 -6.37 Z M 11.03 -21.32 L 11.03 -27.93 L 12.2 -27.93 C 16.71 -27.93 18.18 -27.73 18.18 -24.65 C 18.18 -21.36 15.68 -21.32 11.22 -21.32 Z M 43.51 -27.93 L 43.51 0 L 65.02 0 L 65.02 -6.37 L 51.84 -6.37 L 51.84 -13.96 L 60.12 -13.96 L 60.12 -20.34 L 51.84 -20.34 L 51.84 -27.93 L 63.06 -27.93 L 65.02 -34.3 L 43.51 -34.3 L 41.55 -27.93 Z M 79.58 -27.93 L 79.58 0 L 87.91 0 L 87.91 -18.52 L 97.71 0 L 106.04 0 L 106.04 -34.3 L 97.71 -34.3 L 97.71 -15.78 L 87.91 -34.3 L 79.58 -34.3 L 77.62 -27.93 Z M 118.63 -29.4 L 123.43 -29.4 L 122.94 -24.84 L 124.95 -24.84 L 127.45 -29.4 L 127.45 -35.77 L 120.59 -35.77 Z M 153.81 -6.47 C 150.92 -6.47 148.81 -8.23 147.88 -12.01 L 140.04 -8.82 C 142.49 -2.89 147.59 0.49 153.81 0.49 C 160.28 0.49 167.43 -3.92 167.43 -10.44 C 167.43 -14.46 164.49 -18.67 155.92 -21.46 C 151.75 -22.79 150.92 -23.57 150.92 -25.19 C 150.92 -26.66 152.24 -27.83 154.35 -27.83 C 156.26 -27.83 157.88 -26.95 159.01 -25.19 L 166.65 -28.32 C 164 -32.39 159.74 -34.79 154.35 -34.79 C 154.35 -34.79 154.35 -34.79 154.35 -34.79 L 154.3 -34.79 C 148.32 -34.79 142.1 -30.87 142.1 -25.19 C 142.1 -19.89 146.31 -17.05 153.17 -14.8 C 157.93 -13.33 158.61 -11.81 158.61 -10.44 C 158.61 -7.69 156.7 -6.47 153.81 -6.47 Z M 228.14 0 L 228.14 -19.65 L 215.26 -19.65 L 213.3 -13.28 L 219.81 -13.28 L 219.81 -12.01 C 219.81 -7.99 217.27 -6.47 214.38 -6.47 C 210.31 -6.47 207.81 -10.29 207.81 -17.2 C 207.81 -24.45 210.41 -27.83 214.38 -27.83 C 216.34 -27.83 217.95 -26.95 219.08 -25.19 L 226.72 -28.32 C 224.08 -32.39 219.77 -34.79 214.38 -34.79 C 205.46 -34.79 198.99 -28.27 198.99 -17.2 C 198.99 -6.52 205.07 0.49 214.38 0.49 C 217.51 0.49 220.35 -0.34 222.71 -1.96 L 223.29 0 Z M 260.83 -34.3 L 250.05 -34.3 L 248.09 -27.93 L 249.9 -27.93 L 240.74 0 L 249.07 0 L 250.93 -5.88 L 261.91 -5.88 L 263.77 0 L 272.1 0 Z M 252.94 -12.25 L 256.42 -23.37 L 259.9 -12.25 Z M 285.18 -27.93 L 285.18 0 L 293.51 0 L 293.51 -9.8 L 294.69 -9.8 L 295.47 -9.8 L 302.09 0 L 310.91 0 L 303.51 -10.93 C 307.82 -12.4 310.46 -15.63 310.46 -22.1 C 310.46 -31.61 304.39 -34.3 294.69 -34.3 L 285.18 -34.3 L 283.22 -27.93 Z M 293.51 -16.17 L 293.51 -27.93 L 294.69 -27.93 C 299.19 -27.93 301.64 -27.54 301.64 -22.1 C 301.64 -16.22 299.15 -16.17 294.69 -16.17 Z M 343.59 -34.3 L 332.81 -34.3 L 330.85 -27.93 L 332.66 -27.93 L 323.5 0 L 331.83 0 L 333.69 -5.88 L 344.67 -5.88 L 346.53 0 L 354.86 0 Z M 335.7 -12.25 L 339.18 -23.37 L 342.66 -12.25 Z M 393.18 0 L 393.18 -19.65 L 380.29 -19.65 L 378.33 -13.28 L 384.85 -13.28 L 384.85 -12.01 C 384.85 -7.99 382.3 -6.47 379.41 -6.47 C 375.34 -6.47 372.84 -10.29 372.84 -17.2 C 372.84 -24.45 375.44 -27.83 379.41 -27.83 C 381.37 -27.83 382.98 -26.95 384.11 -25.19 L 391.76 -28.32 C 389.11 -32.39 384.8 -34.79 379.41 -34.79 C 370.49 -34.79 364.02 -28.27 364.02 -17.2 C 364.02 -6.52 370.1 0.49 379.41 0.49 C 382.54 0.49 385.39 -0.34 387.74 -1.96 L 388.33 0 Z M 407.73 -27.93 L 407.73 0 L 429.24 0 L 429.24 -6.37 L 416.06 -6.37 L 416.06 -13.96 L 424.34 -13.96 L 424.34 -20.34 L 416.06 -20.34 L 416.06 -27.93 L 427.28 -27.93 L 429.24 -34.3 L 407.73 -34.3 L 405.77 -27.93 Z M 462.76 -27.93 L 462.76 0 L 469.81 0 L 469.81 0.05 L 473.24 0 C 482.99 0 489.51 -6.17 489.51 -17.2 C 489.51 -27.78 483.43 -34.3 473.24 -34.3 L 462.76 -34.3 L 460.8 -27.93 Z M 471.09 -6.37 L 471.09 -27.93 L 473.24 -27.93 C 478.24 -27.93 480.69 -24.11 480.69 -17.2 C 480.69 -9.85 478.19 -6.37 473.24 -6.37 Z M 517.49 -6.47 C 513.42 -6.47 510.92 -10.29 510.92 -17.2 C 510.92 -24.45 513.52 -27.83 517.49 -27.83 C 521.51 -27.83 523.96 -24.11 523.96 -17.2 C 523.96 -9.85 521.46 -6.47 517.49 -6.47 Z M 502.1 -17.2 C 502.1 -6.52 508.18 0.49 517.49 0.49 C 526.26 0.49 532.78 -6.17 532.78 -17.2 C 532.78 -27.78 526.7 -34.79 517.49 -34.79 C 508.57 -34.79 502.1 -28.27 502.1 -17.2 Z M 560.76 -6.47 C 556.69 -6.47 554.19 -10.29 554.19 -17.2 C 554.19 -24.45 556.79 -27.83 560.76 -27.83 C 564.77 -27.83 567.22 -24.11 567.22 -17.2 C 567.22 -9.85 564.73 -6.47 560.76 -6.47 Z M 545.37 -17.2 C 545.37 -6.52 551.45 0.49 560.76 0.49 C 569.53 0.49 576.04 -6.17 576.04 -17.2 C 576.04 -27.78 569.97 -34.79 560.76 -34.79 C 551.84 -34.79 545.37 -28.27 545.37 -17.2 Z M 590.6 -27.93 L 590.6 0 L 598.93 0 L 598.93 -9.8 L 600.1 -9.8 L 600.89 -9.8 L 607.5 0 L 616.32 0 L 608.92 -10.93 C 613.24 -12.4 615.88 -15.63 615.88 -22.1 C 615.88 -31.61 609.81 -34.3 600.1 -34.3 L 590.6 -34.3 L 588.64 -27.93 Z M 598.93 -16.17 L 598.93 -27.93 L 600.1 -27.93 C 604.61 -27.93 607.06 -27.54 607.06 -22.1 C 607.06 -16.22 604.56 -16.17 600.1 -16.17 Z" stroke-linecap="round" />
</g>
</g>
</g>
<g transform="matrix(1.9211538461538462 0 0 1.9211538461538462 639.8309384615384 770.8142917705604)" id="tagline-d3cd831c-c23d-472d-9a0a-c71c320b0ba8-logo"  >
<g style=""  paint-order="stroke"   >
		<g transform="matrix(1 0 0 1 0 0)" id="tagline-d3cd831c-c23d-472d-9a0a-c71c320b0ba8-logo-path-0"  >
<path style="stroke: none; stroke-width: 0; stroke-dasharray: none; stroke-linecap: butt; stroke-dashoffset: 0; stroke-linejoin: miter; stroke-miterlimit: 4; fill: rgb(44,52,100); fill-rule: nonzero; opacity: 1;"  paint-order="stroke"  transform=" translate(-277.10499999999996, 11.2)" d="M 11.65 -9.76 L 15.97 -9.76 L 15.97 -4.42 C 14.62 -3.46 13.06 -3.01 11.23 -3.01 C 7.62 -3.01 4.8 -5.76 4.8 -11.23 C 4.8 -16.64 7.62 -19.39 11.23 -19.39 C 13.25 -19.39 14.98 -18.78 16.29 -17.54 L 18.05 -20.29 C 16.29 -21.76 13.98 -22.59 11.23 -22.59 C 5.41 -22.59 1.28 -18.02 1.28 -11.23 C 1.28 -4.38 5.41 0.19 11.23 0.19 C 12.99 0.19 14.59 -0.16 15.97 -0.8 L 15.97 0 L 19.49 0 L 19.49 -12.64 L 11.65 -12.64 Z M 46.78 0 L 50.3 0 L 43.26 -22.4 L 37.44 -22.4 L 36.83 -19.52 L 38.37 -19.52 L 32.22 0 L 35.74 0 L 37.44 -5.44 L 45.09 -5.44 Z M 38.37 -8.32 L 41.28 -17.57 L 44.16 -8.32 Z M 64.32 -19.52 L 64.32 0 L 67.84 0 L 67.84 -9.12 L 71.49 -9.12 L 75.9 0 L 79.74 0 L 75.1 -9.54 C 77.6 -10.37 79.07 -12.51 79.07 -15.71 C 79.07 -19.71 76.58 -22.4 72.48 -22.4 L 63.36 -22.4 L 63.04 -19.52 Z M 67.84 -12 L 67.84 -19.52 L 71.81 -19.52 C 74.11 -19.52 75.55 -18.14 75.55 -15.74 C 75.55 -13.5 74.14 -12 71.81 -12 Z M 106.08 0 L 109.6 0 L 102.56 -22.4 L 96.74 -22.4 L 96.13 -19.52 L 97.66 -19.52 L 91.52 0 L 95.04 0 L 96.74 -5.44 L 104.38 -5.44 Z M 97.66 -8.32 L 100.58 -17.57 L 103.46 -8.32 Z M 131.74 -9.76 L 136.06 -9.76 L 136.06 -4.42 C 134.72 -3.46 133.15 -3.01 131.33 -3.01 C 127.71 -3.01 124.9 -5.76 124.9 -11.23 C 124.9 -16.64 127.71 -19.39 131.33 -19.39 C 133.34 -19.39 135.07 -18.78 136.38 -17.54 L 138.14 -20.29 C 136.38 -21.76 134.08 -22.59 131.33 -22.59 C 125.5 -22.59 121.38 -18.02 121.38 -11.23 C 121.38 -4.38 125.5 0.19 131.33 0.19 C 133.09 0.19 134.69 -0.16 136.06 -0.8 L 136.06 0 L 139.58 0 L 139.58 -12.64 L 131.74 -12.64 Z M 154.24 0 L 167.58 0 L 167.9 -2.88 L 157.76 -2.88 L 157.76 -9.76 L 165.6 -9.76 L 165.92 -12.64 L 157.76 -12.64 L 157.76 -19.52 L 167.26 -19.52 L 167.58 -22.4 L 153.28 -22.4 L 152.96 -19.52 L 154.24 -19.52 Z M 199.78 0 L 205.44 0 C 212.38 0 216.64 -4 216.64 -11.2 C 216.64 -18.14 212.64 -22.4 205.44 -22.4 L 198.82 -22.4 L 198.5 -19.52 L 199.78 -19.52 Z M 203.3 -2.88 L 203.3 -19.52 L 204.8 -19.52 C 209.95 -19.52 213.12 -16.54 213.12 -11.2 C 213.12 -6.05 210.14 -2.88 204.8 -2.88 Z M 239.87 0.19 C 246.21 0.19 250.69 -4.38 250.69 -11.23 C 250.69 -18.02 246.21 -22.59 239.87 -22.59 C 233.54 -22.59 229.06 -18.02 229.06 -11.23 C 229.06 -4.38 233.54 0.19 239.87 0.19 Z M 232.58 -11.23 C 232.58 -16.64 235.94 -19.39 239.87 -19.39 C 243.81 -19.39 247.17 -16.64 247.17 -11.23 C 247.17 -5.76 243.81 -3.01 239.87 -3.01 C 235.94 -3.01 232.58 -5.76 232.58 -11.23 Z M 273.92 0.19 C 280.26 0.19 284.74 -4.38 284.74 -11.23 C 284.74 -18.02 280.26 -22.59 273.92 -22.59 C 267.58 -22.59 263.1 -18.02 263.1 -11.23 C 263.1 -4.38 267.58 0.19 273.92 0.19 Z M 266.62 -11.23 C 266.62 -16.64 269.98 -19.39 273.92 -19.39 C 277.86 -19.39 281.22 -16.64 281.22 -11.23 C 281.22 -5.76 277.86 -3.01 273.92 -3.01 C 269.98 -3.01 266.62 -5.76 266.62 -11.23 Z M 299.39 -19.52 L 299.39 0 L 302.91 0 L 302.91 -9.12 L 306.56 -9.12 L 310.98 0 L 314.82 0 L 310.18 -9.54 C 312.67 -10.37 314.14 -12.51 314.14 -15.71 C 314.14 -19.71 311.65 -22.4 307.55 -22.4 L 298.43 -22.4 L 298.11 -19.52 Z M 302.91 -12 L 302.91 -19.52 L 306.88 -19.52 C 309.18 -19.52 310.62 -18.14 310.62 -15.74 C 310.62 -13.5 309.22 -12 306.88 -12 Z M 352.42 0.19 C 357.18 0.19 360.45 -2.94 360.45 -6.85 C 360.45 -12.74 349.86 -12.67 349.86 -16.51 C 349.86 -18.69 352.03 -19.39 353.12 -19.39 C 355.2 -19.39 356.26 -18.43 356.93 -17.57 L 358.91 -20.38 C 357.6 -21.54 355.71 -22.59 353.41 -22.59 C 348.86 -22.59 346.34 -19.87 346.34 -16.77 C 346.34 -9.82 356.93 -10.27 356.93 -6.43 C 356.93 -4.38 354.94 -3.01 352.51 -3.01 C 350.4 -3.01 348.22 -4.61 347.3 -5.7 L 345.41 -3.14 C 347.33 -0.93 349.63 0.19 352.42 0.19 Z M 375.1 0 L 388.45 0 L 388.77 -2.88 L 378.62 -2.88 L 378.62 -9.76 L 386.46 -9.76 L 386.78 -12.64 L 378.62 -12.64 L 378.62 -19.52 L 388.13 -19.52 L 388.45 -22.4 L 374.14 -22.4 L 373.82 -19.52 L 375.1 -19.52 Z M 403.42 -19.52 L 403.42 0 L 406.94 0 L 406.94 -9.12 L 410.59 -9.12 L 415.01 0 L 418.85 0 L 414.21 -9.54 C 416.7 -10.37 418.18 -12.51 418.18 -15.71 C 418.18 -19.71 415.68 -22.4 411.58 -22.4 L 402.46 -22.4 L 402.14 -19.52 Z M 406.94 -12 L 406.94 -19.52 L 410.91 -19.52 C 413.22 -19.52 414.66 -18.14 414.66 -15.74 C 414.66 -13.5 413.25 -12 410.91 -12 Z M 439.39 0 L 443.39 0 L 450.43 -22.4 L 446.91 -22.4 L 441.41 -4.83 L 435.87 -22.4 L 431.78 -22.4 L 431.58 -19.52 L 433.25 -19.52 Z M 463.81 0 L 467.33 0 L 467.33 -22.4 L 462.85 -22.4 L 462.53 -19.52 L 463.81 -19.52 Z M 498.11 -3.07 L 496.42 -5.66 C 494.85 -3.81 492.8 -3.01 490.34 -3.01 C 486.72 -3.01 483.9 -5.76 483.9 -11.23 C 483.9 -16.64 486.72 -19.39 490.34 -19.39 C 492.35 -19.39 494.08 -18.78 495.39 -17.54 L 497.15 -20.29 C 495.39 -21.76 493.09 -22.59 490.34 -22.59 C 484.51 -22.59 480.38 -18.02 480.38 -11.23 C 480.38 -4.38 484.51 0.19 490.34 0.19 C 493.6 0.19 496.29 -0.99 498.11 -3.07 Z M 512.13 0 L 525.47 0 L 525.79 -2.88 L 515.65 -2.88 L 515.65 -9.76 L 523.49 -9.76 L 523.81 -12.64 L 515.65 -12.64 L 515.65 -19.52 L 525.15 -19.52 L 525.47 -22.4 L 511.17 -22.4 L 510.85 -19.52 L 512.13 -19.52 Z M 544.9 0.19 C 549.66 0.19 552.93 -2.94 552.93 -6.85 C 552.93 -12.74 542.34 -12.67 542.34 -16.51 C 542.34 -18.69 544.51 -19.39 545.6 -19.39 C 547.68 -19.39 548.74 -18.43 549.41 -17.57 L 551.39 -20.38 C 550.08 -21.54 548.19 -22.59 545.89 -22.59 C 541.34 -22.59 538.82 -19.87 538.82 -16.77 C 538.82 -9.82 549.41 -10.27 549.41 -6.43 C 549.41 -4.38 547.42 -3.01 544.99 -3.01 C 542.88 -3.01 540.7 -4.61 539.78 -5.7 L 537.89 -3.14 C 539.81 -0.93 542.11 0.19 544.9 0.19 Z" stroke-linecap="round" />
</g>
</g>
</g>
</svg>