<?xml version="1.0" encoding="UTF-8" standalone="no" ?>
<!DOCTYPE svg PUBLIC "-//W3C//DTD SVG 1.1//EN" "http://www.w3.org/Graphics/SVG/1.1/DTD/svg11.dtd">
<svg xmlns="http://www.w3.org/2000/svg" xmlns:xlink="http://www.w3.org/1999/xlink" version="1.1" width="200" height="250" viewBox="0 0 1280 1024" xml:space="preserve">
<desc>Created with Fabric.js 5.3.0</desc>
<defs>
</defs>
<g transform="matrix(1 0 0 1 640 512)" id="background-logo"  >
<rect style="stroke: none; stroke-width: 0; stroke-dasharray: none; stroke-linecap: butt; stroke-dashoffset: 0; stroke-linejoin: miter; stroke-miterlimit: 4; fill: rgb(255,255,255); fill-opacity: 0; fill-rule: nonzero; opacity: 1;"  paint-order="stroke"  x="-640" y="-512" rx="0" ry="0" width="1280" height="1024" />
</g>
<g transform="matrix(1.9211538461538462 0 0 1.9211538461538462 640 397.8910043848176)" id="logo-logo"  >
<g style=""  paint-order="stroke"   >
		<g transform="matrix(0.8194019882482538 0 0 0.8194019882482539 0 0)"  >
<g style=""  paint-order="stroke"   >
		<g transform="matrix(1 0 0 1 0 0)"  >
<path style="stroke: none; stroke-width: 1; stroke-dasharray: none; stroke-linecap: butt; stroke-dashoffset: 0; stroke-linejoin: miter; stroke-miterlimit: 4; fill: rgb(242,242,242); fill-rule: nonzero; opacity: 1;"  paint-order="stroke"  transform=" translate(-250.00000004999998, -250)" d="M 310.876709 177.2995453 L 308.5460816 170.30764770000002 L 249.9999848 137.86956790000002 L 191.4498597 170.30764770000002 L 189.1192017 177.2995453 L 155.3858948 191.17376710000002 L 155.3858948 241.2215271 C 156.299469 257.4020081 160.5547028 286.953186 181.0715943 312.87847899999997 C 194.81181339999998 330.2445373 212.22662359999998 341.40237429999996 220.52597049999997 346.7214355 C 231.97615059999998 354.05847159999996 242.34625249999996 358.9511718 249.99998479999996 362.1304321 C 257.6537476 358.9511718 268.01980599999996 354.0584717 279.4740296 346.7214355 C 287.7733765 341.4023742 305.1841126 330.2445373 318.92837529999997 312.87847899999997 C 339.44122319999997 286.95318599999996 343.7005311 257.4020081 344.61410529999995 241.22152709999997 L 344.61410529999995 191.17376709999996 L 310.876709 177.2995453 z M 333.6511841 240.908905 C 332.61581420000005 258.5713806 327.710907 284.1109314 310.33264160000004 306.0773925 C 297.72528080000006 322.006134 281.40267940000007 332.46557609999996 273.55810550000007 337.492279 C 266.0627137000001 342.2956542 258.15316780000006 346.55899039999997 249.99998480000008 350.1930236 C 241.84683230000007 346.5589904 233.93727120000008 342.2956542 226.44189460000007 337.492279 C 218.59730540000007 332.4655761 202.27066050000008 322.006134 189.66735850000006 306.0773925 C 172.28503430000006 284.11093129999995 167.38420120000006 258.5713805 166.34881600000006 240.90890499999998 L 166.34881600000006 198.51890559999998 L 197.93421940000005 185.5258026 C 198.75848390000004 183.0490112 200.03340150000005 180.7752075 201.67379760000006 178.8018799 C 203.31417850000005 176.8285675 205.31997680000006 175.15570069999998 207.60189820000005 173.8929138 L 249.99998470000006 150.4038391 L 292.39810180000006 173.8929138 C 294.68002320000005 175.1557007 296.6858215000001 176.8285675 298.32620240000006 178.8018799 C 299.9665833000001 180.7752075 301.24151610000007 183.0490112 302.06579590000007 185.5258026 L 333.6511841000001 198.51890559999998 L 333.6511841000001 240.908905 z" stroke-linecap="round" />
</g>
		<g transform="matrix(1 0 0 1 -4.999998282074e-8 -55.939353849999975)"  >
<path style="stroke: none; stroke-width: 1; stroke-dasharray: none; stroke-linecap: butt; stroke-dashoffset: 0; stroke-linejoin: miter; stroke-miterlimit: 4; fill: rgb(242,242,242); fill-rule: nonzero; opacity: 1;"  paint-order="stroke"  transform=" translate(-250, -194.06064615000003)" d="M 308.9196472 224.8583527 L 191.0803528 224.8583527 L 194.94581609999997 218.74346930000002 L 200.55314639999997 218.74346930000002 C 201.75904849999998 203.44816600000001 207.32984929999998 190.36573800000002 218.84091189999998 179.80479440000002 C 218.84091189999998 183.92604070000002 218.80438239999998 190.72303780000001 218.84904479999997 195.43711860000002 L 224.35081479999997 202.2950288 L 224.35081479999997 175.49675000000002 C 226.63272089999995 174.08377090000002 229.46682739999997 172.43933120000003 231.99644469999996 171.00601210000002 L 231.99644469999996 211.80436720000003 L 237.98138429999995 216.03929150000002 L 237.98138429999995 163.2629396 L 246.46751409999996 163.2629396 L 246.46751409999996 205.70166030000001 L 249.99998479999996 209.38032550000003 L 253.53248599999998 205.69758620000002 L 253.53248599999998 163.2629396 L 262.01861579999996 163.2629396 L 262.01861579999996 216.03929150000002 L 267.99948129999996 211.80839550000002 L 267.99948129999996 171.006012 C 270.53314219999993 172.4393311 273.3672792 174.0837708 275.64920049999995 175.4967499 L 275.64920049999995 202.2950287 L 281.15093999999993 195.4330597 C 281.19561769999996 190.7189789 281.15905769999995 183.9260407 281.15905769999995 179.8047943 C 292.6701355999999 190.3657379 298.24093639999995 203.4481659 299.44686899999994 218.7434692 L 305.05419929999994 218.7434692 L 308.9196472 224.8583527 z" stroke-linecap="round" />
</g>
		<g transform="matrix(1 0 0 1 0.00000760000003197092 -13.439727750000003)"  >
<rect style="stroke: none; stroke-width: 0; stroke-dasharray: none; stroke-linecap: butt; stroke-dashoffset: 0; stroke-linejoin: miter; stroke-miterlimit: 4; fill: rgb(242,242,242); fill-rule: nonzero; opacity: 1;"  paint-order="stroke"  x="-61.72533415" y="-3.65431215" rx="0" ry="0" width="123.4506683" height="7.3086243" />
</g>
		<g transform="matrix(1 0 0 1 -0.0004301241826283331 8.429584405490004)"  >
<path style="stroke: none; stroke-width: 1; stroke-dasharray: none; stroke-linecap: butt; stroke-dashoffset: 0; stroke-linejoin: miter; stroke-miterlimit: 4; fill: rgb(242,242,242); fill-rule: nonzero; opacity: 1;"  paint-order="stroke"  transform=" translate(-249.99956992581735, -258.42958440549)" d="M 279.2547913 262.9524841 C 277.297699 266.25354 273.6149598 267.3904419 269.9768677 266.6352234 C 265.6647949 265.74194339999997 263.0133972 262.4002991 259.241333 260.47161869999996 C 256.1473389 258.8921509 252.8990784 259.31442269999997 249.9999847 261.13754279999995 C 247.0968628 259.31442269999997 243.8526458 258.89215099999996 240.7586364 260.47161869999996 C 236.9865874 262.4002991 234.335205 265.74194339999997 230.023117 266.6352234 C 226.38098140000002 267.3904419 222.7023162 266.25354009999995 220.74114980000002 262.9524841 C 218.48361200000002 259.14794919999997 218.44708240000003 254.2714691 218.8815307 249.9999847 L 281.1184692 249.9999847 C 281.5529175 254.2714691 281.5123291 259.1479492 279.2547913 262.9524841 z" stroke-linecap="round" />
</g>
		<g transform="matrix(1 0 0 1 -1.0000002248489e-7 22.959213200000022)"  >
<path style="stroke: none; stroke-width: 1; stroke-dasharray: none; stroke-linecap: butt; stroke-dashoffset: 0; stroke-linejoin: miter; stroke-miterlimit: 4; fill: rgb(242,242,242); fill-rule: nonzero; opacity: 1;"  paint-order="stroke"  transform=" translate(-249.99999994999996, -272.9592132)" d="M 260.9710388 272.599884 C 258.25872799999996 275.87249749999995 254.29177849999996 278.0813293 249.99998469999997 278.0813293 C 245.70820609999998 278.0813293 241.74125669999998 275.8724975 239.02896109999998 272.599884 C 240.43382259999998 272.4252929 242.26504509999998 272.0557861 244.27897639999998 271.251831 C 246.84915159999997 270.2245483 248.74942009999998 268.8805847 249.99998469999997 267.8370971 C 251.25057979999997 268.8805846 253.15081779999997 270.2245483 255.72102349999997 271.251831 C 257.7349548 272.0557861 259.5621033 272.425293 260.9710388 272.599884 z" stroke-linecap="round" />
</g>
		<g transform="matrix(1 0 0 1 0 48.711944649999964)"  >
<path style="stroke: none; stroke-width: 1; stroke-dasharray: none; stroke-linecap: butt; stroke-dashoffset: 0; stroke-linejoin: miter; stroke-miterlimit: 4; fill: rgb(242,242,242); fill-rule: nonzero; opacity: 1;"  paint-order="stroke"  transform=" translate(-250.00000004999998, -298.71194464999996)" d="M 288.528595 271.3046265 L 288.528595 287.2373963 C 269.201355 295.6869813 252.1682282 320.2601929 249.9999848 326.1192628 C 247.8317719 320.260193 230.7986298 295.6869813 211.4714051 287.2373963 L 211.4714051 271.3046265 C 226.6530152 280.0343628 239.8734895 292.06921389999997 249.9999848 306.3656617 C 260.1264954 292.0692139 273.3469543 280.0343628 288.528595 271.3046265 z" stroke-linecap="round" />
</g>
</g>
</g>
		<g transform="matrix(0.8194019882482538 0 0 0.8194019882482539 -0.0000062684251815881 18.547115782192236)"  >
<g style=""  paint-order="stroke"   >
		<g transform="matrix(1 0 0 1 -0.0013695831642905887 44.999122599999964)"  >
<path style="stroke: none; stroke-width: 1; stroke-dasharray: none; stroke-linecap: butt; stroke-dashoffset: 0; stroke-linejoin: miter; stroke-miterlimit: 4; fill: rgb(150,179,217); fill-rule: nonzero; opacity: 1;"  paint-order="stroke"  transform=" translate(-249.99862281683576, -317.63406375)" d="M 249.9999847 339.7996216 C 243.6453857 336.77178960000003 237.4337463 333.3209229 231.5355377 329.541687 C 224.1018219 324.7771301 208.6820373 314.8943176 197.0719909 300.2160339 C 196.8039398 299.8793945 196.540451 299.5427551 196.2765807 299.2017212 C 195.89909350000002 298.70925900000003 195.7404784 298.0978394 195.8302916 297.4804382 C 195.9214934 296.8543396 196.25436390000002 296.3043823 196.7676543 295.9316406 L 196.8017577 295.90588379999997 C 197.1959075 295.62039189999996 197.6623992 295.46850589999997 198.149124 295.46850589999997 C 198.8793181 295.46850589999997 199.55458050000001 295.80319219999996 200.0016631 296.38644409999995 C 200.0016631 296.38644409999995 200.5115813 297.04031369999996 200.7332305 297.3214416999999 C 211.86012259999998 311.3839416999999 226.83740229999998 320.98602299999993 234.03498829999998 325.60031129999993 C 239.1647338 328.88507079999994 244.5149535 331.9033508999999 249.95518479999998 334.5830383999999 L 249.99998459999998 334.6048279999999 L 250.04479969999997 334.5830383999999 C 255.48501579999996 331.9033508999999 260.83523549999995 328.8850708999999 265.94696029999994 325.6122131999999 C 273.15484599999996 320.9911804999999 288.1317136999999 311.3890991999999 299.26672349999996 297.3214416999999 C 299.5105895 297.01257329999993 299.7544554 296.69931039999994 299.99435409999995 296.38644409999995 C 300.4436034 295.80319209999993 301.120056 295.46850589999997 301.85086039999993 295.46850589999997 C 302.33776839999996 295.46850589999997 302.8044736999999 295.62039189999996 303.2001950999999 295.90707399999997 L 303.2311093999999 295.93045049999995 C 303.7442319999999 296.30319219999996 304.07611059999994 296.8519593 304.1669003999999 297.47647099999995 C 304.2569272999999 298.0946655999999 304.0979001999999 298.70767219999993 303.7192379999999 299.2021179999999 C 303.45913669999993 299.5431213999999 303.1962276999999 299.87939459999996 302.9285885999999 300.2160339999999 C 291.3173519999999 314.8951110999999 275.8971554999999 324.7779235999999 268.48663299999987 329.5278320999999 C 262.5670166 333.3205261 256.3551636 336.7713928 249.9999847 339.7996216 z" stroke-linecap="round" />
</g>
		<g transform="matrix(1 0 0 1 55.582084549999934 11.431312549999973)"  >
<path style="stroke: none; stroke-width: 1; stroke-dasharray: none; stroke-linecap: butt; stroke-dashoffset: 0; stroke-linejoin: miter; stroke-miterlimit: 4; fill: rgb(150,179,217); fill-rule: nonzero; opacity: 1;"  paint-order="stroke"  transform=" translate(-305.58207695, -284.0662537)" d="M 301.8750305 286.4009399 C 300.5875549 286.4009399 299.5403442 285.35372920000003 299.5403442 284.06625360000004 C 299.5403442 283.4437255 299.7834167 282.85806270000006 300.2251281 282.41635130000003 C 300.6628722 281.9746094 301.2485351 281.7315674 301.8750304 281.7315674 L 309.2891234 281.7315674 C 310.57662949999997 281.7315674 311.6238097 282.77874760000003 311.6238097 284.0662537 C 311.6238097 285.3537293 310.57662949999997 286.40094 309.2891234 286.40094 L 301.8750305 286.40094 z" stroke-linecap="round" />
</g>
		<g transform="matrix(1 0 0 1 54.100105249999956 -2.970619299999953)"  >
<path style="stroke: none; stroke-width: 1; stroke-dasharray: none; stroke-linecap: butt; stroke-dashoffset: 0; stroke-linejoin: miter; stroke-miterlimit: 4; fill: rgb(150,179,217); fill-rule: nonzero; opacity: 1;"  paint-order="stroke"  transform=" translate(-304.10009765, -269.6643218500001)" d="M 302.7235718 271.9990234 C 301.4360962 271.9990234 300.3888855 270.9518127 300.3888855 269.6643371 C 300.3888855 269.0378417 300.631958 268.45217890000004 301.0732727 268.01480100000003 C 301.5153809 267.5726928 302.1010437 267.32962030000004 302.7235718 267.32962030000004 L 305.476593 267.32962030000004 C 306.76409909999995 267.32962030000004 307.8113098 268.37683100000004 307.8113098 269.66433710000007 C 307.8113098 270.95181270000006 306.7640991 271.99902340000006 305.476593 271.99902340000006 L 302.7235718 271.99902340000006 z" stroke-linecap="round" />
</g>
		<g transform="matrix(1 0 0 1 61.30304714999994 -16.873321550000014)"  >
<path style="stroke: none; stroke-width: 1; stroke-dasharray: none; stroke-linecap: butt; stroke-dashoffset: 0; stroke-linejoin: miter; stroke-miterlimit: 4; fill: rgb(150,179,217); fill-rule: nonzero; opacity: 1;"  paint-order="stroke"  transform=" translate(-311.30303955, -255.76161960000002)" d="M 302.7235718 258.0963135 C 301.4360962 258.0963135 300.3888855 257.0491028 300.3888855 255.761612 C 300.3888855 255.1351166 300.631958 254.5494538 301.0732727 254.11210640000002 C 301.5153809 253.669983 302.1010437 253.42692570000003 302.7235718 253.42692570000003 L 319.8825073 253.42692570000003 C 321.1699829 253.42692570000003 322.2171936 254.47412110000002 322.2171936 255.761612 C 322.2171936 257.0491029 321.1699829 258.0963135 319.8825073 258.0963135 L 302.7235718 258.0963135 z" stroke-linecap="round" />
</g>
		<g transform="matrix(1 0 0 1 69.7748489 -52.12118535000002)"  >
<path style="stroke: none; stroke-width: 1; stroke-dasharray: none; stroke-linecap: butt; stroke-dashoffset: 0; stroke-linejoin: miter; stroke-miterlimit: 4; fill: rgb(150,179,217); fill-rule: nonzero; opacity: 1;"  paint-order="stroke"  transform=" translate(-319.77484130000005, -220.5137558)" d="M 316.7032166 222.8484497 C 315.41571050000005 222.8484497 314.36853030000003 221.8010559 314.36853030000003 220.5137482 C 314.36853030000003 219.8916169 314.61157230000003 219.3055573 315.05331420000005 218.8640442 C 315.4910583 218.4221192 316.07672120000007 218.1790619 316.70321650000005 218.1790619 L 322.8464660000001 218.1790619 C 324.13397210000005 218.1790619 325.18115230000006 219.2264557 325.18115230000006 220.51374819999998 C 325.18115230000006 221.8010559 324.13397210000005 222.84844969999997 322.8464660000001 222.84844969999997 L 316.7032166 222.84844969999997 z" stroke-linecap="round" />
</g>
		<g transform="matrix(1 0 0 1 68.27878564999997 -64.82997895000005)"  >
<path style="stroke: none; stroke-width: 1; stroke-dasharray: none; stroke-linecap: butt; stroke-dashoffset: 0; stroke-linejoin: miter; stroke-miterlimit: 4; fill: rgb(150,179,217); fill-rule: nonzero; opacity: 1;"  paint-order="stroke"  transform=" translate(-318.27877805, -207.80496219999998)" d="M 313.2075195 210.1396637 C 311.9200134 210.1396637 310.87280269999997 209.0922546 310.87280269999997 207.8049622 C 310.87280269999997 207.1828156 311.11587519999995 206.5967713 311.5576172 206.1550446 C 311.99932859999996 205.7135315 312.5849915 205.47026069999998 313.2075195 205.47026069999998 L 323.3500366 205.47026069999998 C 324.6375427 205.47026069999998 325.68475340000003 206.5176698 325.68475340000003 207.80496219999998 C 325.68475340000003 209.09225459999996 324.63754270000004 210.13966369999997 323.3500366 210.13966369999997 L 313.2075195 210.13966369999997 z" stroke-linecap="round" />
</g>
		<g transform="matrix(1 0 0 1 -55.58209235000004 11.431312450000007)"  >
<path style="stroke: none; stroke-width: 1; stroke-dasharray: none; stroke-linecap: butt; stroke-dashoffset: 0; stroke-linejoin: miter; stroke-miterlimit: 4; fill: rgb(150,179,217); fill-rule: nonzero; opacity: 1;"  paint-order="stroke"  transform=" translate(-194.41790005000001, -284.06625360000004)" d="M 190.7108459 286.4009399 C 189.4235534 286.4009399 188.37615960000002 285.35372920000003 188.37615960000002 284.06625360000004 C 188.37615960000002 282.77874750000007 189.42355340000003 281.73156730000005 190.7108459 281.73156730000005 L 198.12493890000002 281.73156730000005 C 198.7512359 281.73156730000005 199.33709710000002 281.97460930000005 199.77445980000002 282.41595450000005 C 200.2163696 282.85806270000006 200.4596405 283.4437255 200.4596405 284.06625360000004 C 200.4596405 285.35372920000003 199.4122314 286.4009399 198.124939 286.4009399 L 190.7108459 286.4009399 z" stroke-linecap="round" />
</g>
		<g transform="matrix(1 0 0 1 -54.10001380000003 -2.9706193000000667)"  >
<path style="stroke: none; stroke-width: 1; stroke-dasharray: none; stroke-linecap: butt; stroke-dashoffset: 0; stroke-linejoin: miter; stroke-miterlimit: 4; fill: rgb(150,179,217); fill-rule: nonzero; opacity: 1;"  paint-order="stroke"  transform=" translate(-195.89997860000003, -269.66432184999996)" d="M 194.5235748 271.9990234 C 193.2362671 271.9990234 192.1888733 270.9518127 192.1888733 269.6643371 C 192.1888733 268.37683100000004 193.23626710000002 267.3296203 194.5235748 267.3296203 L 197.27639770000002 267.3296203 C 197.8987274 267.3296203 198.484787 267.57269279999997 198.92630000000003 268.0144042 C 199.36802670000003 268.4521789 199.61108390000004 269.0378417 199.61108390000004 269.6643371 C 199.61108390000004 270.9518127 198.56369010000003 271.9990234 197.27639760000005 271.9990234 L 194.5235748 271.9990234 z" stroke-linecap="round" />
</g>
		<g transform="matrix(1 0 0 1 -61.30306250000001 -16.873321550000014)"  >
<path style="stroke: none; stroke-width: 1; stroke-dasharray: none; stroke-linecap: butt; stroke-dashoffset: 0; stroke-linejoin: miter; stroke-miterlimit: 4; fill: rgb(150,179,217); fill-rule: nonzero; opacity: 1;"  paint-order="stroke"  transform=" translate(-188.69692990000004, -255.76161960000002)" d="M 180.1174774 258.0963135 C 178.8301849 258.0963135 177.78277590000002 257.0491028 177.78277590000002 255.761612 C 177.78277590000002 254.4741212 178.83018500000003 253.42692570000003 180.1174774 253.42692570000003 L 197.27639770000002 253.42692570000003 C 197.8987274 253.42692570000003 198.484787 253.66998300000003 198.92630000000003 254.11170960000004 C 199.36802670000003 254.54945370000004 199.61108390000004 255.13511660000003 199.61108390000004 255.76161190000005 C 199.61108390000004 257.04910270000005 198.56369010000003 258.09631340000004 197.27639760000005 258.09631340000004 L 180.1174774 258.09631340000004 z" stroke-linecap="round" />
</g>
		<g transform="matrix(1 0 0 1 -69.77495575 -52.12118535000002)"  >
<path style="stroke: none; stroke-width: 1; stroke-dasharray: none; stroke-linecap: butt; stroke-dashoffset: 0; stroke-linejoin: miter; stroke-miterlimit: 4; fill: rgb(150,179,217); fill-rule: nonzero; opacity: 1;"  paint-order="stroke"  transform=" translate(-180.22503665000005, -220.5137558)" d="M 177.1533051 222.8484497 C 175.8660126 222.8484497 174.81861880000002 221.8010559 174.81861880000002 220.5137482 C 174.81861880000002 219.2264557 175.86601260000003 218.17906190000002 177.1533051 218.17906190000002 L 183.29675300000002 218.17906190000002 C 183.92306530000002 218.17906190000002 184.5087128 218.42211920000003 184.94607550000003 218.8636475 C 185.38819890000005 219.3055573 185.63145450000005 219.89141850000001 185.63145450000005 220.5137482 C 185.63145450000005 221.80105590000002 184.58406070000004 222.8484497 183.29675300000005 222.8484497 L 177.1533051 222.8484497 z" stroke-linecap="round" />
</g>
		<g transform="matrix(1 0 0 1 -68.27870175000004 -64.82997895)"  >
<path style="stroke: none; stroke-width: 1; stroke-dasharray: none; stroke-linecap: butt; stroke-dashoffset: 0; stroke-linejoin: miter; stroke-miterlimit: 4; fill: rgb(150,179,217); fill-rule: nonzero; opacity: 1;"  paint-order="stroke"  transform=" translate(-181.72129065000001, -207.80496220000003)" d="M 176.6499329 210.1396637 C 175.3626404 210.1396637 174.31523140000002 209.0922546 174.31523140000002 207.8049622 C 174.31523140000002 206.51766980000002 175.36264050000003 205.4702607 176.6499329 205.4702607 L 186.7926636 205.4702607 C 187.4149933 205.4702607 188.0008545 205.7135316 188.4423676 206.15504460000002 C 188.88409430000002 206.59677130000003 189.1273499 207.18281560000003 189.1273499 207.80496220000003 C 189.1273499 209.09225470000004 188.0799561 210.13966370000003 186.79266360000003 210.13966370000003 L 176.6499329 210.13966370000003 z" stroke-linecap="round" />
</g>
</g>
</g>
</g>
</g>
<g transform="matrix(1.9211538461538462 0 0 1.9211538461538462 613.0558173076923 671.0780200382592)" id="text-logo"  >
<g style=""  paint-order="stroke"   >
		<g transform="matrix(1 0 0 1 0 0)" id="text-logo-path-0"  >
<filter id="SVGID_161492" y="-27.142857142857142%" height="154.28571428571428%" x="-20.664010624169986%" width="141.32802124833998%" >
	<feGaussianBlur in="SourceAlpha" stdDeviation="0"></feGaussianBlur>
	<feOffset dx="2.749999999999999" dy="2.749999999999999" result="oBlur" ></feOffset>
	<feFlood flood-color="rgb(150,179,217)" flood-opacity="1"/>
	<feComposite in2="oBlur" operator="in" />
	<feMerge>
		<feMergeNode></feMergeNode>
		<feMergeNode in="SourceGraphic"></feMergeNode>
	</feMerge>
</filter>
<path style="stroke: rgb(26,65,115); stroke-width: 4.741379310344827; stroke-dasharray: none; stroke-linecap: butt; stroke-dashoffset: 0; stroke-linejoin: miter; stroke-miterlimit: 4; fill: rgb(242,242,242); fill-rule: nonzero; opacity: 1;filter: url(#SVGID_161492);"  paint-order="stroke"  transform=" translate(-209.825, 19.25)" d="M 9.35 0 L 9.35 -14.03 L 16 -14.03 L 18.75 -11.28 L 18.75 0 L 25.36 0 L 25.36 -14.03 L 22.05 -17.32 L 25.36 -20.63 L 25.36 -31.9 L 18.75 -38.5 L 2.75 -38.5 L 2.75 0 Z M 9.35 -20.63 L 9.35 -31.9 L 16 -31.9 L 18.75 -29.15 L 18.75 -23.38 L 16 -20.63 Z M 47.36 0 L 47.36 -16.23 L 54.01 -16.23 L 56.76 -13.47 L 56.76 0 L 63.36 0 L 63.36 -16.23 L 59.51 -20.07 L 62.26 -22.82 L 62.26 -38.5 L 55.66 -38.5 L 55.66 -25.57 L 52.91 -22.82 L 47.36 -22.82 L 47.36 -38.5 L 40.76 -38.5 L 40.76 0 Z M 122.27 -6.6 L 122.27 -18.37 L 106.26 -26.79 L 106.26 -29.15 L 109.01 -31.9 L 112.92 -31.9 L 115.67 -29.15 L 115.67 -25.57 L 122.27 -25.57 L 122.27 -31.9 L 115.67 -38.5 L 106.26 -38.5 L 99.66 -31.9 L 99.66 -22.82 L 115.67 -14.41 L 115.67 -9.35 L 112.92 -6.6 L 109.01 -6.6 L 106.26 -9.35 L 106.26 -12.93 L 99.66 -12.93 L 99.66 -6.6 L 106.26 0 L 115.67 0 Z M 144.27 -9.35 L 144.27 -29.15 L 147.02 -31.9 L 150.92 -31.9 L 153.67 -29.15 L 153.67 -9.35 L 150.92 -6.6 L 147.02 -6.6 Z M 137.67 -6.6 L 144.27 0 L 153.67 0 L 160.27 -6.6 L 160.27 -31.9 L 153.67 -38.5 L 144.27 -38.5 L 137.67 -31.9 Z M 196.63 -6.6 L 182.27 -6.6 L 182.27 -38.5 L 175.67 -38.5 L 175.67 0 L 196.63 0 Z M 228.03 -38.5 L 228.03 -9.35 L 225.28 -6.6 L 221.38 -6.6 L 218.63 -9.35 L 218.63 -38.5 L 212.03 -38.5 L 212.03 -6.6 L 218.63 0 L 228.03 0 L 234.63 -6.6 L 234.63 -38.5 Z M 264.66 0 L 264.66 -31.9 L 272.64 -31.9 L 272.64 -38.5 L 250.03 -38.5 L 250.03 -31.9 L 258.06 -31.9 L 258.06 0 Z M 288.04 0 L 302.89 0 L 302.89 -6.6 L 298.93 -6.6 L 298.93 -31.9 L 302.89 -31.9 L 302.89 -38.5 L 288.04 -38.5 L 288.04 -31.9 L 292.33 -31.9 L 292.33 -6.6 L 288.04 -6.6 Z M 324.89 -9.35 L 324.89 -29.15 L 327.64 -31.9 L 331.54 -31.9 L 334.29 -29.15 L 334.29 -9.35 L 331.54 -6.6 L 327.64 -6.6 Z M 318.29 -6.6 L 324.89 0 L 334.29 0 L 340.89 -6.6 L 340.89 -31.9 L 334.29 -38.5 L 324.89 -38.5 L 318.29 -31.9 Z M 362.89 0 L 362.89 -21.18 L 372.3 -4.13 L 372.3 0 L 378.9 0 L 378.9 -38.5 L 372.3 -38.5 L 372.3 -17.77 L 362.89 -34.81 L 362.89 -38.5 L 356.29 -38.5 L 356.29 0 Z M 416.9 -6.6 L 416.9 -18.37 L 400.9 -26.79 L 400.9 -29.15 L 403.65 -31.9 L 407.55 -31.9 L 410.3 -29.15 L 410.3 -25.57 L 416.9 -25.57 L 416.9 -31.9 L 410.3 -38.5 L 400.9 -38.5 L 394.3 -31.9 L 394.3 -22.82 L 410.3 -14.41 L 410.3 -9.35 L 407.55 -6.6 L 403.65 -6.6 L 400.9 -9.35 L 400.9 -12.93 L 394.3 -12.93 L 394.3 -6.6 L 400.9 0 L 410.3 0 Z" stroke-linecap="round" />
</g>
</g>
</g>
<g transform="matrix(1.9211538461538462 0 0 1.9211538461538462 636.9607346153845 771.0898696151824)" id="tagline-68713c25-84f6-4608-af49-e3d540aeb6fd-logo"  >
<g style=""  paint-order="stroke"   >
		<g transform="matrix(1 0 0 1 0 0)" id="tagline-68713c25-84f6-4608-af49-e3d540aeb6fd-logo-path-0"  >
<path style="stroke: none; stroke-width: 0; stroke-dasharray: none; stroke-linecap: butt; stroke-dashoffset: 0; stroke-linejoin: miter; stroke-miterlimit: 4; fill: rgb(242,242,242); fill-rule: nonzero; opacity: 1;"  paint-order="stroke"  transform=" translate(-290.74, 9.8)" d="M 7.31 -6.44 L 9.55 -6.44 L 9.55 -4.76 L 8.15 -3.36 L 6.16 -3.36 L 4.76 -4.76 L 4.76 -14.84 L 6.16 -16.24 L 8.15 -16.24 L 9.55 -14.84 L 9.55 -13.02 L 12.91 -13.02 L 12.91 -16.24 L 9.55 -19.6 L 4.76 -19.6 L 1.4 -16.24 L 1.4 -3.36 L 4.76 0 L 9.55 0 L 12.91 -3.36 L 12.91 -9.8 L 7.31 -9.8 Z M 35.87 0 L 35.87 -5.6 L 40.66 -5.6 L 40.66 0 L 44.02 0 L 44.02 -7.84 L 40.66 -19.6 L 35.87 -19.6 L 32.51 -7.84 L 32.51 0 Z M 36.32 -8.96 L 38.28 -15.71 L 40.21 -8.96 Z M 66.98 0 L 66.98 -7.14 L 70.36 -7.14 L 71.76 -5.74 L 71.76 0 L 75.12 0 L 75.12 -7.14 L 73.44 -8.82 L 75.12 -10.5 L 75.12 -16.24 L 71.76 -19.6 L 63.62 -19.6 L 63.62 0 Z M 66.98 -10.5 L 66.98 -16.24 L 70.36 -16.24 L 71.76 -14.84 L 71.76 -11.9 L 70.36 -10.5 Z M 98.08 0 L 98.08 -5.6 L 102.87 -5.6 L 102.87 0 L 106.23 0 L 106.23 -7.84 L 102.87 -19.6 L 98.08 -19.6 L 94.72 -7.84 L 94.72 0 Z M 98.53 -8.96 L 100.49 -15.71 L 102.42 -8.96 Z M 131.74 -6.44 L 133.98 -6.44 L 133.98 -4.76 L 132.58 -3.36 L 130.59 -3.36 L 129.19 -4.76 L 129.19 -14.84 L 130.59 -16.24 L 132.58 -16.24 L 133.98 -14.84 L 133.98 -13.02 L 137.34 -13.02 L 137.34 -16.24 L 133.98 -19.6 L 129.19 -19.6 L 125.83 -16.24 L 125.83 -3.36 L 129.19 0 L 133.98 0 L 137.34 -3.36 L 137.34 -9.8 L 131.74 -9.8 Z M 167.61 -3.36 L 160.3 -3.36 L 160.3 -7.98 L 165.93 -7.98 L 165.93 -11.34 L 160.3 -11.34 L 160.3 -16.24 L 167.61 -16.24 L 167.61 -19.6 L 156.94 -19.6 L 156.94 0 L 167.61 0 Z M 212.97 -16.24 L 216.36 -16.24 L 217.76 -14.84 L 217.76 -4.76 L 216.36 -3.36 L 212.97 -3.36 Z M 209.61 0 L 217.76 0 L 221.12 -3.36 L 221.12 -16.24 L 217.76 -19.6 L 209.61 -19.6 Z M 244.08 -4.76 L 244.08 -14.84 L 245.48 -16.24 L 247.46 -16.24 L 248.86 -14.84 L 248.86 -4.76 L 247.46 -3.36 L 245.48 -3.36 Z M 240.72 -3.36 L 244.08 0 L 248.86 0 L 252.22 -3.36 L 252.22 -16.24 L 248.86 -19.6 L 244.08 -19.6 L 240.72 -16.24 Z M 275.18 -4.76 L 275.18 -14.84 L 276.58 -16.24 L 278.57 -16.24 L 279.97 -14.84 L 279.97 -4.76 L 278.57 -3.36 L 276.58 -3.36 Z M 271.82 -3.36 L 275.18 0 L 279.97 0 L 283.33 -3.36 L 283.33 -16.24 L 279.97 -19.6 L 275.18 -19.6 L 271.82 -16.24 Z M 306.29 0 L 306.29 -7.14 L 309.68 -7.14 L 311.08 -5.74 L 311.08 0 L 314.44 0 L 314.44 -7.14 L 312.76 -8.82 L 314.44 -10.5 L 314.44 -16.24 L 311.08 -19.6 L 302.93 -19.6 L 302.93 0 Z M 306.29 -10.5 L 306.29 -16.24 L 309.68 -16.24 L 311.08 -14.84 L 311.08 -11.9 L 309.68 -10.5 Z M 367.95 -3.36 L 367.95 -9.35 L 359.8 -13.64 L 359.8 -14.84 L 361.2 -16.24 L 363.19 -16.24 L 364.59 -14.84 L 364.59 -13.02 L 367.95 -13.02 L 367.95 -16.24 L 364.59 -19.6 L 359.8 -19.6 L 356.44 -16.24 L 356.44 -11.62 L 364.59 -7.34 L 364.59 -4.76 L 363.19 -3.36 L 361.2 -3.36 L 359.8 -4.76 L 359.8 -6.58 L 356.44 -6.58 L 356.44 -3.36 L 359.8 0 L 364.59 0 Z M 398.22 -3.36 L 390.91 -3.36 L 390.91 -7.98 L 396.54 -7.98 L 396.54 -11.34 L 390.91 -11.34 L 390.91 -16.24 L 398.22 -16.24 L 398.22 -19.6 L 387.55 -19.6 L 387.55 0 L 398.22 0 Z M 421.18 0 L 421.18 -7.14 L 424.56 -7.14 L 425.96 -5.74 L 425.96 0 L 429.32 0 L 429.32 -7.14 L 427.64 -8.82 L 429.32 -10.5 L 429.32 -16.24 L 425.96 -19.6 L 417.82 -19.6 L 417.82 0 Z M 421.18 -10.5 L 421.18 -16.24 L 424.56 -16.24 L 425.96 -14.84 L 425.96 -11.9 L 424.56 -10.5 Z M 457.07 -19.6 L 457.07 -12.24 L 454.69 -3.89 L 452.28 -12.24 L 452.28 -19.6 L 448.92 -19.6 L 448.92 -11.76 L 452.28 0 L 457.07 0 L 460.43 -11.76 L 460.43 -19.6 Z M 480.03 0 L 487.59 0 L 487.59 -3.36 L 485.58 -3.36 L 485.58 -16.24 L 487.59 -16.24 L 487.59 -19.6 L 480.03 -19.6 L 480.03 -16.24 L 482.22 -16.24 L 482.22 -3.36 L 480.03 -3.36 Z M 515.34 -6.58 L 515.34 -4.76 L 513.94 -3.36 L 511.95 -3.36 L 510.55 -4.76 L 510.55 -14.84 L 511.95 -16.24 L 513.94 -16.24 L 515.34 -14.84 L 515.34 -13.02 L 518.7 -13.02 L 518.7 -16.24 L 515.34 -19.6 L 510.55 -19.6 L 507.19 -16.24 L 507.19 -3.36 L 510.55 0 L 515.34 0 L 518.7 -3.36 L 518.7 -6.58 Z M 548.97 -3.36 L 541.66 -3.36 L 541.66 -7.98 L 547.29 -7.98 L 547.29 -11.34 L 541.66 -11.34 L 541.66 -16.24 L 548.97 -16.24 L 548.97 -19.6 L 538.3 -19.6 L 538.3 0 L 548.97 0 Z M 580.08 -3.36 L 580.08 -9.35 L 571.93 -13.64 L 571.93 -14.84 L 573.33 -16.24 L 575.32 -16.24 L 576.72 -14.84 L 576.72 -13.02 L 580.08 -13.02 L 580.08 -16.24 L 576.72 -19.6 L 571.93 -19.6 L 568.57 -16.24 L 568.57 -11.62 L 576.72 -7.34 L 576.72 -4.76 L 575.32 -3.36 L 573.33 -3.36 L 571.93 -4.76 L 571.93 -6.58 L 568.57 -6.58 L 568.57 -3.36 L 571.93 0 L 576.72 0 Z" stroke-linecap="round" />
</g>
</g>
</g>
</svg>